<svg width="35" height="35" viewBox="0 0 35 35" fill="none" xmlns="http://www.w3.org/2000/svg">
<g clip-path="url(#clip0_22104_10655)">
<path d="M34.8741 17.4371C34.8741 27.0673 27.0673 34.8741 17.4371 34.8741C7.80683 34.8741 0 27.0673 0 17.4371C0 7.80683 7.80683 0 17.4371 0C27.0673 0 34.8741 7.80683 34.8741 17.4371Z" fill="#22253B"/>
<path fill-rule="evenodd" clip-rule="evenodd" d="M16.8501 22.9577H17.9654C17.9654 22.9577 18.3023 22.9209 18.4743 22.7358C18.6326 22.566 18.6276 22.2472 18.6276 22.2472C18.6276 22.2472 18.6058 20.7547 19.3004 20.5348C19.9851 20.3184 20.8644 21.9775 21.7964 22.6153C22.501 23.0981 23.0364 22.9923 23.0364 22.9923L25.5285 22.9577C25.5285 22.9577 26.8319 22.8776 26.2138 21.8554C26.1633 21.7717 25.8539 21.0992 24.3612 19.7173C22.7987 18.2709 23.0079 18.5049 24.89 16.003C26.0364 14.4793 26.4946 13.549 26.3514 13.1506C26.2148 12.7712 25.3718 12.8715 25.3718 12.8715L22.5662 12.8889C22.5662 12.8889 22.3582 12.8606 22.2039 12.9526C22.0532 13.0428 21.9561 13.253 21.9561 13.253C21.9561 13.253 21.5121 14.432 20.9198 15.4348C19.6705 17.5506 19.1709 17.6623 18.9668 17.5309C18.4918 17.2247 18.6104 16.3008 18.6104 15.6445C18.6104 13.594 18.9222 12.7391 18.0032 12.5178C17.6982 12.4443 17.4737 12.3958 16.6938 12.3879C15.6927 12.3776 14.8453 12.3909 14.3655 12.6254C14.0464 12.7813 13.8001 13.1287 13.9501 13.1486C14.1355 13.1734 14.5555 13.2615 14.7782 13.564C15.0657 13.954 15.0556 14.8302 15.0556 14.8302C15.0556 14.8302 15.2207 17.2439 14.6698 17.5438C14.2916 17.7495 13.7728 17.3296 12.6589 15.41C12.0882 14.4267 11.6573 13.3399 11.6573 13.3399C11.6573 13.3399 11.5743 13.1367 11.4261 13.0281C11.2462 12.8965 10.9949 12.8545 10.9949 12.8545L8.32878 12.872C8.32878 12.872 7.92853 12.8831 7.78161 13.0567C7.65091 13.211 7.77123 13.5304 7.77123 13.5304C7.77123 13.5304 9.85854 18.4008 12.222 20.8553C14.3891 23.1055 16.8501 22.9577 16.8501 22.9577Z" fill="white"/>
</g>
<defs>
<clipPath id="clip0_22104_10655">
<rect width="35" height="35" fill="white"/>
</clipPath>
</defs>
</svg>
